# xmcd CD database file
#
# Track frame offsets:
#	150
#	18982
#	44017
#
# Disc length: 831 seconds
#
# Revision: 0
# Processed by: cddbd v1.5PL3 Copyright (c) Steve Scherf et al.
# Submitted via: CDex 1.50beta9
#
DISCID=1f033d03
DTITLE=Great3 - Soul Glow
DYEAR=1998
DGENRE=JPop
TTITLE0=Soul Glow
TTITLE1=From TV Series Soul Glow
TTITLE2=Theme of Soul Glow
EXTD=YEAR: 1998
EXTT0=
EXTT1=
EXTT2=
PLAYORDER=
